<svg id="Ebene_1" data-name="Ebene 1" xmlns="http://www.w3.org/2000/svg" xmlns:xlink="http://www.w3.org/1999/xlink" viewBox="0 0 669.44 361.45"><defs><style>.cls-1{fill:none;}.cls-2{clip-path:url(#clip-path);}.cls-3{fill:#1f1e1e;}.cls-4{fill:#f59c0e;}</style><clipPath id="clip-path"><rect class="cls-1" x="118.54" y="156.48" width="436.1" height="68.78"/></clipPath></defs><title>RGB_solute</title><g class="cls-2"><path class="cls-3" d="M454.92,207.73c-.32,2.78-.83,4.33-2.07,5.46-1.75,1.65-3.71,2.07-10.31,2.07H433c-6.7,0-8.77-.42-10.31-2.07s-2.07-3.92-2.07-10.31v-1.65H466V190.92c0-8.15-1.34-12.38-4.85-15.78s-8.14-4.84-15.78-4.84H430.17c-7.64,0-12.28,1.44-15.78,4.95s-4.85,7.83-4.85,15.67v13.71c0,7.74,1.34,12.17,4.85,15.68s8.14,4.95,15.78,4.95h15.15c13.2,0,18.77-4.44,20.63-16.19Zm-34.35-16.19c0-10,1.45-11.35,12.38-11.35h9.59c10.93,0,12.38,1.34,12.38,11.35ZM387.47,215c-10.1.2-12.37-1.65-12.37-10.32v-24h23.41l1.34-10.31H375.1V156.48h-11V170.3h-7.53v10.31h7.53v24c0,7.84,1.33,12.28,4.84,15.68s8.15,4.95,15.78,4.95h20V215ZM348.29,170.3h-11V215H316.73c-6.7,0-8.66-.41-10.31-2.07s-2.06-3.91-2.06-10.31V170.3h-11v34.33c0,7.84,1.33,12.28,4.84,15.68s8.15,4.95,15.78,4.95h34.34Zm-81.36-13.43h-11v47.76c0,7.84,1.33,12.28,4.84,15.68s8.15,4.95,15.78,4.95h13.71V215H279.3c-6.7,0-8.66-.41-10.31-2.07-1.45-1.54-2-3.61-2.06-8.25ZM197.74,193c0-6.39.41-8.56,2-10.31s3.61-2.06,10.32-2.06h9.59c6.7,0,8.66.41,10.31,2.06s2.06,3.92,2.06,10.31v9.59c0,6.4-.41,8.56-2.06,10.31S226.4,215,219.7,215h-9.59c-6.71,0-8.66-.41-10.32-2.07s-2-3.91-2-10.31Zm45.37-2.06c0-7.84-1.34-12.27-4.85-15.67s-8.15-4.95-15.78-4.95H207.32c-7.62,0-12.16,1.44-15.77,4.95s-4.85,7.83-4.85,15.67v13.71c0,7.84,1.34,12.28,4.85,15.68s8.15,4.95,15.77,4.95h15.16c7.63,0,12.17-1.45,15.78-4.95s4.85-7.84,4.85-15.68Zm-68.47-4.43c-1.86-11.76-7.43-16.19-20.63-16.19H139.16c-13.51,0-20.62,5-20.62,14.43v3.82a13.06,13.06,0,0,0,7.32,12.06c2.89,1.55,6.08,2,13.2,2h13.3c4.13,0,6.39.1,7.43.42,2.57.62,4,2.26,4,4.74v2c0,4.43-2.58,5.57-12.27,5.57H142c-6.6,0-8.56-.42-10.32-2.07-1.23-1.13-1.75-2.68-2.06-5.46l-11,1.34c1.86,11.75,7.42,16.19,20.62,16.19h15.16c13.51,0,20.62-5.06,20.62-14.54V207a13.22,13.22,0,0,0-7.31-12.17c-2.9-1.44-5.78-1.86-13.21-1.86h-13.3c-4.23,0-6.39-.1-7.42-.41-2.58-.62-4-2.37-4-4.74v-2.07c0-4.33,2.58-5.46,12.28-5.46h9.28c6.6,0,8.56.41,10.31,2.06,1.24,1.14,1.75,2.68,2.06,5.47Z"/><path class="cls-4" d="M496.35,214.79h34.18a14.06,14.06,0,0,0,14.05-14V180.61a14.06,14.06,0,0,0-14.05-14.05H510.4a14.07,14.07,0,0,0-14,14.05Zm34.18,10.05H486.31V180.61a24.12,24.12,0,0,1,24.09-24.1h20.13a24.13,24.13,0,0,1,24.1,24.1v20.13a24.13,24.13,0,0,1-24.1,24.1"/></g></svg>